<?xml version="1.0" encoding="utf-8"?>
<svg version="1.1" xmlns="http://www.w3.org/2000/svg" xmlns:xlink="http://www.w3.org/1999/xlink" x="0px" y="0px"
	 viewBox="0 0 180 180" style="enable-background:new 0 0 180 180;" xml:space="preserve">
<style type="text/css">
	.st0{fill:#0E94A1;}
</style>
<path class="st0" d="M53.6,143.3c0,27.2,10.6,29.4,34.2,29.4h14.7c23.4,0,56.2-12.2,73.2-31.6c3.1-3.5,4.5-6.5,5.8-6.5
    c0.8,0,1.7,0.5,1.7,1.9c0,1.1-0.8,2.4-1.1,3.8l-11.4,39.2H7.1c-4.7,0-6.1-0.5-6.1-1.4c0-0.5,1.9-0.8,6.7-2.4
    c10.9-4.6,13.6-14.7,13.6-38.9V29.4c0-11.2-4.5-19.3-12-21.8C7.4,6.8,6.5,6.3,6.5,5.4s1.7-1.1,4.2-1.1c4.5,0,17.8,1.1,26.7,1.1
    s22.3-1.1,26.7-1.1c2.5,0,3.3,0.3,3.3,1.4c0,0.8-1.4,1.1-2.5,1.6c-8.3,3.5-11.4,10.9-11.4,22V143.3z"/>
</svg>
