<?xml version="1.0" encoding="utf-8"?>
<!-- Generator: Adobe Illustrator 24.3.0, SVG Export Plug-In . SVG Version: 6.00 Build 0)  -->
<svg version="1.1" id="Layer_1" xmlns="http://www.w3.org/2000/svg" xmlns:xlink="http://www.w3.org/1999/xlink" x="0px" y="0px"
	 viewBox="0 0 1326.3 408.8" style="enable-background:new 0 0 1326.3 408.8;" xml:space="preserve">
<style type="text/css">
	.st0{fill:#0E94A1;}
	.st1{fill:#0C939F;}
</style>
<g>
	<g>
		<g>
			<path class="st0" d="M53.6,143.3c0,27.2,10.6,29.4,34.2,29.4h14.7c23.4,0,56.2-12.2,73.2-31.6c3.1-3.5,4.5-6.5,5.8-6.5
				c0.8,0,1.7,0.5,1.7,1.9c0,1.1-0.8,2.4-1.1,3.8l-11.4,39.2H7.1c-4.7,0-6.1-0.5-6.1-1.4c0-0.5,1.9-0.8,6.7-2.4
				c10.9-4.6,13.6-14.7,13.6-38.9V29.4c0-11.2-4.5-19.3-12-21.8C7.4,6.8,6.5,6.3,6.5,5.4s1.7-1.1,4.2-1.1c4.5,0,17.8,1.1,26.7,1.1
				s22.3-1.1,26.7-1.1c2.5,0,3.3,0.3,3.3,1.4c0,0.8-1.4,1.1-2.5,1.6c-8.3,3.5-11.4,10.9-11.4,22V143.3z"/>
			<path class="st0" d="M362.7,185c-54.5,0-105.2-36.4-105.2-92.5S308.2,0,362.7,0s105.2,36.4,105.2,92.5S417.3,185,362.7,185z
				 M362.7,6.8c-50.6,0-67.9,45.1-67.9,85.7s17.3,85.7,67.9,85.7s67.9-45.1,67.9-85.7S413.4,6.8,362.7,6.8z"/>
			<path class="st0" d="M665.2,138.7L726.7,4.4h43.7c3.3,0,3.9,0.8,3.9,1.6s-1.7,1.6-3.9,2.2c-9.2,1.9-11.7,11.4-11.7,24.2v103.4
				c0,16,0.6,37.8,17.3,41.1c2.2,0.5,4.5,1.6,4.5,2.2c0,0.8-2.2,1.4-4.5,1.4c-1.4,0-8.9-0.8-32.8-0.8c-21.4,0-28.9,0.8-31.7,0.8
				c-1.7,0-3.3-0.5-3.3-1.4c0-0.5,1.7-1.1,4.5-1.9c14.2-3.8,15-25.3,15-41.3V22.8H727l-69.6,148c-0.6,1.6-4.5,10.9-7,10.9h-0.6
				c-3.1,0-5.8-8.2-7.2-11.2L573.9,22.8h-0.6v103.1c0,19,2.5,43,18.4,49.2c3.6,2.2,5.8,3.3,5.8,4.1c0,0.3-1.4,0.3-3.6,0.3h-48.1
				c-2.2,0-3.9-0.3-3.9-0.8c0-0.8,1.9-1.4,3.9-2.4c15.3-8.2,20.6-32.9,20.6-50.3V36.2c0-10.1-2.5-26.1-13.1-28.3
				c-1.4-0.3-1.9-1.6-1.9-2.4c0-0.5,0.8-1.1,1.9-1.1h45.9L665.2,138.7z"/>
			<path class="st0" d="M905.6,100.1l-15,28.6c-5,9.5-9.7,19.9-9.7,31c0,11.7,7.5,14.7,15,17.4c2.2,0.5,3.1,1.1,3.1,1.9
				c0,1.1-1.4,1.4-3.3,1.4c-1.9,0-12-0.8-27.3-0.8c-11.1,0-18.4,0.8-21.7,0.8c-2.8,0-3.6-0.5-3.6-1.4c0-1.9,3.3-3,5.3-4.4
				c11.1-8.7,26.2-31.3,32.3-43L948.8,2.2c0.8-1.4,1.4-2.2,1.9-2.2h0.6c0.8,0,1.7,1.1,2.2,2.2l81.8,149.6
				c4.7,8.4,10.3,16.3,18.6,22.6c3.1,2.2,6.4,3.3,6.4,4.6c0,0.8-1.4,1.4-3.9,1.4c-1.9,0-15-0.8-31.2-0.8c-22.8,0-32,0.8-33.7,0.8
				c-1.4,0-2.8-0.3-2.8-0.8c0-1.1,1.4-1.6,3.6-2.2c6.4-2.2,7.8-7.3,7.8-14.1c0-4.9-5.8-18.2-12.5-31l-15.9-32.1H905.6z M938.5,36.7
				l-29.2,56.6h59L938.5,36.7z"/>
			<path class="st0" d="M1228.4,76.7l32.6-40.8c3.3-4.1,6.1-9.5,6.1-15c0-6-4.5-13.1-9.5-14.1c-1.4-0.3-2.8-0.5-2.8-1.4
				s1.7-1.1,4.2-1.1c8.9,0,12.2,1.1,27,1.1c13.6,0,22.8-1.1,25.9-1.1c2.5,0,4.2,0.3,4.2,1.1s-0.8,1.1-2.5,1.9
				c-5,1.9-9.7,3.8-13.9,6.5c-12,7.6-25.9,20.9-31.2,26.9L1232,82.1l45.9,58.5c6.4,7.6,24.8,31,39.5,37.3c1.4,0.5,2.5,0.8,2.5,1.6
				s-2.2,0.8-4.5,0.8s-16.4-0.8-33.9-0.8c-25,0-32.6,0.8-35.6,0.8c-2.2,0-3.3-0.3-3.3-1.1c0-0.5,1.1-1.1,2.5-1.4
				c3.6-1.1,8.3-3.5,8.3-9.5c0-4.1-4.5-11.2-8.1-16l-36.5-51.1l-23.1,30.7c-9.2,12-17.3,23.9-17.3,31c0,8.4,2.8,12.2,10.9,15
				c1.1,0.3,1.9,0.8,1.9,1.6c0,0.5-1.7,0.8-3.1,0.8c-1.4,0-12.5-0.8-25.9-0.8c-14.2,0-24.5,0.8-26.4,0.8c-1.9,0-3.3,0-3.3-0.8
				s1.1-1.6,3.3-2.7c13.1-7.9,24.2-19,34.8-29.9l44.5-50.9l-37.8-53c-7.5-10.9-22.3-31-34.2-35.4c-1.9-0.8-3.1-1.4-3.1-2.2
				s1.9-1.1,4.7-1.1c10.3,0,13.9,1.1,30.6,1.1c15.6,0,19.2-1.1,29.5-1.1c2.8,0,4.7,0.3,4.7,1.1s-0.8,1.4-2.2,1.6
				c-7.2,0.8-10.3,3.3-10.3,9c0,4.4,6.7,12.2,9.5,16L1228.4,76.7z"/>
		</g>
	</g>
	<g>
		<g>
			<path d="M87.4,308.9c-10.1,8.4-23.3,11.2-36.1,11.2C27.8,320.1,6,306.5,6,278.2c0-25.4,21.8-41.9,45.2-41.9c11,0,24.5,3,34.3,9.4
				l-3.7,11.6c-0.5,1.5-1.3,4.2-1.7,4.2s-1-1.8-1.3-3.2c-2.5-10.7-9.9-18.5-27.6-18.8c-21.8,0-29.2,20.4-29.2,38.8S30.4,317,56,317
				c11.7,0,20.6-6.5,25.8-19c0.6-1.5,0.7-2.6,1.3-2.6c0.5,0,0.6,0.4,1.1,2.2L87.4,308.9z"/>
			<path d="M167.9,320.1c-23.5,0-45.2-16.5-45.2-41.9s21.8-41.9,45.2-41.9s45.2,16.5,45.2,41.9S191.4,320.1,167.9,320.1z
				 M167.9,239.4c-21.8,0-29.2,20.4-29.2,38.8s7.4,38.8,29.2,38.8s29.2-20.4,29.2-38.8S189.7,239.4,167.9,239.4z"/>
			<path d="M258.3,295.7c0,8.5,1.3,17,9.1,20.7c0.7,0.4,1.4,0.5,1.4,0.7c0,0.4-0.6,0.5-2.6,0.5h-20.1c-0.7,0-1.1-0.1-1.1-0.2
				c0-0.2,0.4-0.5,0.8-0.5c7.9-3.9,9.5-13.1,9.5-21.2v-34.5c0-15.9-2.3-18.8-5.7-20.4c-1.3-0.6-2.2-1-2.2-1.4c0-0.4,0.5-0.6,1.8-0.6
				H269l52.7,55.3v-29.4c0-11.3-1.2-21.2-9.3-24.8c-0.7-0.2-1-0.6-1-1c0-0.5,0.6-0.6,1.6-0.6h19.6c0.6,0,1.2,0.1,1.2,0.5
				s-0.8,1-2,1.6c-5.9,3-7.1,11.8-7.1,20.3v57.8c0,0.9-0.2,1.8-0.6,1.8h-0.2c-0.7,0-1.6-1.2-2.5-2.2l-63.1-70.8V295.7z"/>
			<path d="M430.5,253.5c-0.6,2-0.8,2.6-1.2,2.6c-0.2,0-0.4-0.2-0.6-0.7c-3-8.6-10.7-15.9-25.4-15.9c-9.6,0-22.4,2.2-22.4,14.7
				c0,14.9,13.8,14.4,32.1,17c21.4,3,24.7,13.1,24.7,20.8c0,21.7-21.8,28.2-39.1,28.2c-14.1,0-21.8-2.5-34.9-7.3l3.8-14.7
				c0.6-2.2,0.7-2.7,1.3-2.7c0.6,0,0.7,0.7,0.8,1.6c1.7,12.3,17.1,19.9,28.1,19.9c11.6,0,26.6-3.2,26.6-18.1
				c0-13.7-13.3-13.7-23.1-15.3c-12.8-1.6-33.6-4.8-33.6-22.2c0-20.2,19.4-25.1,35.7-25.1c10.5,0,20.8,1.5,30.6,5.3L430.5,253.5z"/>
			<path d="M505.9,247.6c0-4.8-2-5.7-7.4-5.7c-11.8,0-19.9,6.9-25.3,12.2c-0.8,0.9-1.9,2.1-2.2,2.1c-0.4,0-0.6-0.4-0.6-0.7
				c0-0.5,0.5-1.6,0.8-2.8l3.8-13.8h75.4l3.8,13.8c0.4,1.2,0.8,2.3,0.8,2.8c0,0.4-0.2,0.7-0.6,0.7c-0.2,0-1.3-1.2-2.2-2.1
				c-5.4-5.3-13.4-12.2-25.3-12.2c-5.4,0-7.4,0.9-7.4,5.7v56.8c0,6,1.6,10.8,7.2,11.9c1.1,0.1,1.8,0.6,1.8,1c0,0.2-0.5,0.7-1,0.7
				c-0.8,0-8.1-0.4-15-0.4c-6.8,0-13.9,0.4-14.7,0.4c-0.7,0-1.1-0.2-1.1-0.6c0-0.5,1.1-0.5,2.3-1c5.5-2.5,6.6-6,6.6-17.5V247.6z"/>
			<path d="M607,304.3c0,6,1.6,10.1,5.9,12.1c1.2,0.6,1.7,0.7,1.7,1c0,0.1-0.2,0.2-1.3,0.2h-26.7c-0.6,0-1,0-1-0.2s0.8-0.5,1.9-1
				c4.5-2.5,5.6-6,5.6-12.1v-51.7c0-3.7-0.1-10-4.8-11.7c-1.3-0.5-2.5-0.6-2.5-1.4c0-0.5,0.5-0.7,2.3-0.7h44.8
				c22.3,0,31.5,7.1,31.5,18.1c0,17-19.6,19.2-32.2,19.2v0.2c12.1,1.5,23.6,5.8,27.8,18.7c2.8,8.4,7.2,19.3,10.9,20.7
				c1.1,0.7,2,1.1,2,1.6c0,0.1-0.6,0.2-4.5,0.2h-15.8l-5.7-16.1c-5.3-14.8-7.3-23.3-22.3-23.6l-17.5-0.5V304.3z M607,274.3h21.7
				c13,0,19.6-8.4,19.6-16.6c0-9.1-6.1-15.8-18.8-15.8H607V274.3z"/>
			<path d="M724.6,293.5c0,15.4,10.9,23.5,25.5,23.5c19.9,0,28.5-9.5,28.5-30.5v-25.7c0-12.4-3.2-18.1-8.1-20.7
				c-0.7-0.4-1.6-0.9-1.6-1.2s0.6-0.5,1-0.5c3.4,0,4.5,0.5,10.1,0.5c5,0,8.5-0.5,9.8-0.5c1.1,0,1.8,0.1,1.8,0.5
				c0,0.2-0.6,0.7-1.8,1.6c-3.6,2.3-8,7.6-8.1,20.3v25.6c0,23.8-10.8,33.7-33.9,33.7c-18.3,0-37-4.2-37-26.5v-44
				c0-5-1.3-9.1-5.1-10.1c-0.6-0.2-1.2-0.6-1.2-0.7c0-0.4,0.7-0.5,1.8-0.5c1.9,0,7.7,0.5,11.5,0.5s9.6-0.5,11.5-0.5
				c1.1,0,1.8,0.1,1.8,0.5c0,0.1-0.6,0.5-1.2,0.7c-3.8,1-5.1,5-5.1,10.1V293.5z"/>
			<path d="M905.4,308.9c-10.1,8.4-23.3,11.2-36.1,11.2c-23.5,0-45.2-13.5-45.2-41.9c0-25.4,21.8-41.9,45.2-41.9
				c11,0,24.5,3,34.3,9.4l-3.7,11.6c-0.5,1.5-1.3,4.2-1.7,4.2s-1-1.8-1.3-3.2c-2.5-10.7-9.9-18.5-27.6-18.8
				c-21.8,0-29.2,20.4-29.2,38.8s8.4,38.8,34,38.8c11.7,0,20.6-6.5,25.8-19c0.6-1.5,0.7-2.6,1.3-2.6c0.5,0,0.6,0.4,1.1,2.2
				L905.4,308.9z"/>
			<path d="M972.4,247.6c0-4.8-2-5.7-7.4-5.7c-11.8,0-19.9,6.9-25.3,12.2c-0.8,0.9-1.9,2.1-2.2,2.1c-0.4,0-0.6-0.4-0.6-0.7
				c0-0.5,0.5-1.6,0.8-2.8l3.8-13.8h75.4l3.8,13.8c0.4,1.2,0.8,2.3,0.8,2.8c0,0.4-0.2,0.7-0.6,0.7c-0.2,0-1.3-1.2-2.2-2.1
				c-5.4-5.3-13.4-12.2-25.3-12.2c-5.4,0-7.4,0.9-7.4,5.7v56.8c0,6,1.6,10.8,7.2,11.9c1.1,0.1,1.8,0.6,1.8,1c0,0.2-0.5,0.7-1,0.7
				c-0.8,0-8.1-0.4-15-0.4c-6.8,0-13.9,0.4-14.7,0.4c-0.7,0-1.1-0.2-1.1-0.6c0-0.5,1.1-0.5,2.3-1c5.5-2.5,6.6-6,6.6-17.5V247.6z"/>
			<path d="M1059.6,249.7c-0.1-5.9-1.7-8.9-4.7-9.6c-0.5-0.1-1.3-0.4-1.3-0.7c0-0.4,0.4-1,1.4-1c0.7,0,7.7,0.5,11.5,0.5
				s9.6-0.5,10.3-0.5c0.6,0,1.7,0.1,1.7,1c0,0.5-1.2,0.9-1.9,1.4c-1.4,1-3.1,2.7-3.1,6.8v56.9c0,6,1.6,10.1,5.9,12.1
				c1.2,0.6,1.7,0.7,1.7,1c0,0.1-0.2,0.2-1.3,0.2H1053c-0.6,0-1,0-1-0.2s0.8-0.5,1.9-1c4.5-2.5,5.6-6,5.6-12.1V249.7z"/>
			<path d="M1160.4,320.1c-23.5,0-45.2-16.5-45.2-41.9s21.8-41.9,45.2-41.9s45.2,16.5,45.2,41.9S1183.8,320.1,1160.4,320.1z
				 M1160.4,239.4c-21.8,0-29.2,20.4-29.2,38.8s7.4,38.8,29.2,38.8s29.2-20.4,29.2-38.8S1182.2,239.4,1160.4,239.4z"/>
			<path d="M1250.7,295.7c0,8.5,1.3,17,9.1,20.7c0.7,0.4,1.4,0.5,1.4,0.7c0,0.4-0.6,0.5-2.6,0.5h-20.1c-0.7,0-1.1-0.1-1.1-0.2
				c0-0.2,0.4-0.5,0.8-0.5c7.9-3.9,9.5-13.1,9.5-21.2v-34.5c0-15.9-2.3-18.8-5.7-20.4c-1.3-0.6-2.2-1-2.2-1.4c0-0.4,0.5-0.6,1.8-0.6
				h19.9l52.7,55.3v-29.4c0-11.3-1.2-21.2-9.3-24.8c-0.7-0.2-1-0.6-1-1c0-0.5,0.6-0.6,1.6-0.6h19.6c0.6,0,1.2,0.1,1.2,0.5
				s-0.8,1-2,1.6c-5.9,3-7.1,11.8-7.1,20.3v57.8c0,0.9-0.2,1.8-0.6,1.8h-0.2c-0.7,0-1.6-1.2-2.5-2.2l-63.1-70.8V295.7z"/>
		</g>
	</g>
	<rect y="363.5" class="st1" width="1326.3" height="45.3"/>
</g>
</svg>
